<svg id="svg" version="1.1" xmlns="http://www.w3.org/2000/svg" xmlns:xlink="http://www.w3.org/1999/xlink" viewBox="0, 0, 400,68.75">
	<g id="svgg">
		<path id="path0" d="M3.869 1.458 L 3.917 2.917 5.375 2.965 L 6.833 3.013 6.833 1.506 L 6.833 0.000 5.327 0.000 L 3.820 0.000 3.869 1.458 M12.615 4.273 C 12.406 4.483,12.483 8.583,12.700 8.800 C 13.003 9.103,17.063 9.075,17.318 8.768 C 17.447 8.613,17.495 7.832,17.463 6.393 L 17.417 4.250 15.074 4.204 C 13.785 4.179,12.679 4.210,12.615 4.273 M4.750 9.667 L 3.083 9.750 3.083 11.417 L 3.083 13.083 4.875 13.131 L 6.667 13.178 6.667 11.432 C 6.667 10.472,6.610 9.663,6.542 9.635 C 6.473 9.607,5.667 9.621,4.750 9.667 M12.795 13.427 C 12.744 13.478,12.456 13.551,12.155 13.589 C 11.854 13.627,11.548 13.754,11.473 13.871 C 11.399 13.988,11.337 14.030,11.336 13.965 C 11.326 13.490,9.664 15.585,9.589 16.167 C 9.583 16.212,9.522 16.339,9.452 16.448 C 9.321 16.654,9.275 55.969,9.405 56.621 C 9.474 56.966,9.590 57.148,10.125 57.744 C 10.240 57.872,10.333 58.045,10.333 58.128 C 10.333 58.212,10.521 58.365,10.750 58.470 C 10.979 58.574,11.167 58.736,11.167 58.830 C 11.167 58.923,11.223 58.987,11.292 58.971 C 11.360 58.955,11.834 59.069,12.343 59.223 C 13.680 59.630,75.079 59.575,75.337 59.167 C 75.452 58.985,75.496 58.977,75.497 59.135 C 75.499 59.265,75.865 59.099,76.403 58.722 C 76.900 58.375,77.270 58.033,77.227 57.962 C 77.183 57.891,77.213 57.833,77.294 57.833 C 77.375 57.833,77.605 57.505,77.805 57.104 L 78.170 56.374 78.173 36.502 C 78.176 24.241,78.117 16.557,78.019 16.440 C 77.859 16.246,77.834 16.159,77.833 15.792 C 77.832 15.272,76.108 13.823,75.152 13.538 C 74.685 13.399,12.933 13.290,12.795 13.427 M0.000 21.408 L 0.000 23.649 2.233 23.699 L 4.466 23.750 4.490 21.740 C 4.523 18.965,4.707 19.167,2.149 19.167 L 0.000 19.167 0.000 21.408 M71.792 36.459 L 71.835 53.001 43.792 52.959 L 15.750 52.917 15.707 36.583 C 15.683 27.600,15.700 20.156,15.744 20.041 C 15.807 19.875,21.504 19.841,43.787 19.875 L 71.750 19.917 71.792 36.459 M18.833 25.083 L 18.833 27.333 20.917 27.333 L 23.000 27.333 23.000 25.083 L 23.000 22.833 20.917 22.833 L 18.833 22.833 18.833 25.083 M26.000 27.829 L 26.000 30.157 23.708 30.204 L 21.417 30.250 21.417 38.750 L 21.417 47.250 29.875 47.293 C 37.941 47.334,38.333 47.322,38.333 47.035 C 38.333 46.869,38.395 46.662,38.470 46.575 C 38.545 46.488,38.705 46.004,38.825 45.500 C 38.946 44.996,39.186 44.302,39.359 43.958 C 39.532 43.615,39.636 43.333,39.589 43.333 C 39.543 43.333,39.649 42.967,39.826 42.518 C 40.003 42.070,40.102 41.657,40.046 41.602 C 39.990 41.546,40.032 41.500,40.139 41.500 C 40.246 41.500,40.333 41.365,40.333 41.200 C 40.333 41.035,40.408 40.825,40.499 40.734 C 40.591 40.643,40.693 40.329,40.727 40.036 C 40.761 39.743,40.882 39.392,40.997 39.254 C 41.111 39.117,41.160 38.891,41.107 38.752 C 41.054 38.613,41.078 38.500,41.161 38.500 C 41.291 38.500,41.564 37.903,41.541 37.667 C 41.536 37.621,41.607 37.446,41.697 37.277 C 41.787 37.109,41.896 36.773,41.940 36.532 C 41.984 36.291,42.099 35.998,42.197 35.880 C 42.294 35.763,42.318 35.667,42.250 35.667 C 42.182 35.667,42.203 35.573,42.297 35.458 C 42.479 35.236,42.912 33.834,42.863 33.625 C 42.847 33.556,42.913 33.500,43.010 33.500 C 43.107 33.500,43.145 33.433,43.094 33.351 C 43.044 33.269,43.111 32.941,43.244 32.622 C 43.378 32.303,43.440 31.995,43.382 31.938 C 43.325 31.880,43.365 31.833,43.472 31.833 C 43.579 31.833,43.655 31.777,43.640 31.708 C 43.626 31.640,43.657 31.471,43.710 31.333 C 43.945 30.718,44.415 29.409,44.427 29.333 C 44.434 29.287,44.536 28.912,44.654 28.500 C 44.772 28.087,44.854 27.721,44.837 27.685 C 44.819 27.650,44.874 27.575,44.958 27.519 C 45.174 27.376,45.515 26.326,45.405 26.148 C 45.355 26.066,45.385 26.000,45.472 26.000 C 45.560 26.000,45.674 25.887,45.727 25.750 C 45.812 25.530,44.653 25.500,35.911 25.500 L 26.000 25.500 26.000 27.829 M49.147 26.042 C 49.023 26.340,48.910 26.640,48.898 26.708 C 48.885 26.777,48.856 26.871,48.833 26.917 C 48.810 26.962,48.776 27.056,48.756 27.125 C 48.674 27.417,48.465 27.937,48.321 28.206 C 48.236 28.365,48.167 28.644,48.167 28.826 C 48.167 29.008,47.988 29.553,47.770 30.037 C 47.361 30.941,47.114 31.624,47.088 31.917 C 47.050 32.355,46.422 34.000,46.293 34.000 C 46.213 34.000,46.191 34.072,46.245 34.159 C 46.300 34.247,46.231 34.590,46.092 34.921 C 45.954 35.252,45.851 35.574,45.864 35.636 C 45.876 35.699,45.837 35.881,45.776 36.042 C 45.716 36.202,45.617 36.465,45.556 36.625 C 45.495 36.785,45.433 36.954,45.417 37.000 C 45.401 37.046,45.301 37.294,45.194 37.553 C 45.087 37.811,45.000 38.049,45.000 38.083 C 45.000 38.117,44.913 38.356,44.806 38.614 C 44.699 38.872,44.599 39.121,44.583 39.167 C 44.567 39.212,44.514 39.362,44.465 39.500 C 44.394 39.699,43.848 41.469,43.746 41.833 C 43.733 41.879,43.635 42.126,43.529 42.382 C 43.423 42.638,43.287 43.051,43.228 43.299 C 43.168 43.547,42.983 44.022,42.817 44.354 C 42.650 44.687,42.550 44.994,42.593 45.037 C 42.636 45.080,42.557 45.389,42.417 45.724 C 42.277 46.058,42.169 46.351,42.176 46.374 C 42.184 46.398,42.112 46.623,42.016 46.875 L 41.842 47.333 54.004 47.333 L 66.167 47.333 66.167 36.417 L 66.167 25.500 57.770 25.500 L 49.374 25.500 49.147 26.042 M35.799 29.958 L 35.848 31.167 34.924 31.167 C 34.416 31.167,34.000 31.242,34.000 31.333 C 34.000 31.425,33.944 31.492,33.875 31.482 C 33.590 31.441,33.011 31.716,33.095 31.852 C 33.145 31.934,33.107 32.000,33.010 32.000 C 32.913 32.000,32.833 32.150,32.833 32.333 C 32.833 32.517,32.764 32.667,32.679 32.667 C 32.594 32.667,32.530 33.157,32.537 33.755 C 32.550 35.007,32.140 35.671,31.403 35.590 C 31.021 35.548,31.000 35.593,31.000 36.440 C 31.000 37.322,31.006 37.333,31.502 37.333 C 32.275 37.333,32.520 37.760,32.554 39.166 C 32.573 39.942,32.656 40.413,32.782 40.455 C 32.892 40.492,32.940 40.629,32.889 40.761 C 32.833 40.907,32.901 41.000,33.066 41.000 C 33.213 41.000,33.333 41.067,33.333 41.149 C 33.333 41.379,34.607 41.833,35.253 41.833 L 35.833 41.833 35.833 42.958 L 35.834 44.083 33.881 44.051 C 32.787 44.032,31.742 43.930,31.506 43.819 C 30.319 43.260,30.020 43.091,30.090 43.021 C 30.133 42.978,30.043 42.806,29.891 42.639 C 29.739 42.471,29.683 42.332,29.766 42.331 C 29.849 42.329,29.811 42.262,29.682 42.180 C 29.401 42.001,29.334 41.559,29.286 39.549 C 29.245 37.796,29.062 37.515,27.958 37.505 L 27.333 37.500 27.333 36.417 L 27.333 35.333 28.063 35.333 C 29.103 35.333,29.245 35.087,29.274 33.238 C 29.302 31.501,29.522 30.648,30.132 29.917 C 30.528 29.441,31.500 28.738,31.500 28.927 C 31.500 28.976,31.616 28.952,31.757 28.873 C 31.898 28.794,32.854 28.734,33.882 28.740 L 35.750 28.750 35.799 29.958 M52.750 30.869 C 53.025 31.009,53.587 31.311,54.000 31.540 C 54.413 31.769,55.012 32.098,55.333 32.270 C 55.654 32.442,55.972 32.658,56.039 32.750 C 56.106 32.842,56.163 32.864,56.164 32.800 C 56.166 32.735,56.364 32.865,56.604 33.088 C 56.845 33.311,57.099 33.459,57.168 33.416 C 57.237 33.373,57.472 33.474,57.689 33.641 C 57.906 33.807,58.196 33.993,58.333 34.054 C 58.593 34.169,58.928 34.372,59.708 34.886 C 60.154 35.181,60.167 35.233,60.165 36.720 L 60.163 38.250 59.584 38.625 C 59.265 38.831,58.929 39.000,58.836 39.000 C 58.743 39.000,58.667 39.067,58.667 39.149 C 58.667 39.230,58.479 39.344,58.250 39.402 C 58.021 39.459,57.833 39.580,57.833 39.670 C 57.833 39.760,57.721 39.833,57.583 39.833 C 57.446 39.833,57.333 39.908,57.333 40.000 C 57.333 40.092,57.241 40.167,57.128 40.167 C 56.923 40.167,54.991 41.295,54.833 41.506 C 54.788 41.568,54.469 41.710,54.125 41.822 C 53.781 41.934,53.500 42.099,53.500 42.189 C 53.500 42.279,53.430 42.310,53.345 42.257 C 53.260 42.204,53.146 42.231,53.093 42.317 C 53.008 42.456,51.546 43.333,51.401 43.333 C 51.370 43.333,51.323 42.490,51.297 41.458 L 51.250 39.583 51.806 39.203 C 52.112 38.995,52.450 38.807,52.556 38.787 C 52.663 38.767,52.788 38.706,52.833 38.653 C 52.946 38.522,54.994 37.333,55.108 37.333 C 55.157 37.333,55.378 37.192,55.598 37.018 L 55.998 36.704 55.588 36.435 C 55.363 36.287,55.098 36.167,54.999 36.167 C 54.900 36.167,54.671 36.029,54.490 35.860 C 54.309 35.691,53.956 35.448,53.706 35.319 C 53.455 35.189,53.212 35.041,53.167 34.988 C 53.121 34.935,52.671 34.685,52.167 34.433 L 51.250 33.973 51.302 31.982 L 51.353 29.991 51.802 30.303 C 52.048 30.474,52.475 30.729,52.750 30.869 M3.667 63.379 C 3.667 64.066,3.792 64.866,3.987 65.421 C 4.164 65.923,4.279 66.333,4.243 66.333 C 3.872 66.333,6.047 68.179,6.500 68.249 C 6.546 68.256,6.745 68.352,6.943 68.462 C 7.532 68.790,81.113 68.652,80.910 68.323 C 80.857 68.237,80.925 68.167,81.060 68.167 C 81.532 68.167,82.297 67.595,82.772 66.887 C 83.035 66.495,83.302 66.172,83.365 66.170 C 83.429 66.168,83.452 66.015,83.416 65.829 C 83.380 65.643,83.412 65.529,83.487 65.575 C 83.652 65.677,83.833 64.446,83.833 63.227 L 83.833 62.335 43.750 62.292 L 3.667 62.250 3.667 63.379 M58.784 64.665 C 59.209 64.669,59.247 65.865,58.834 66.200 C 58.450 66.510,28.898 66.620,28.590 66.312 C 28.343 66.065,28.307 65.051,28.536 64.821 C 28.740 64.617,44.566 64.535,58.784 64.665 " stroke="none" fill="#33cc74" fill-rule="evenodd">
		</path>
		<path id="path1" d="M157.000 24.112 C 156.361 24.188,154.848 24.639,154.583 24.832 C 154.492 24.899,154.192 25.007,153.917 25.072 C 151.105 25.734,147.635 29.638,146.363 33.571 L 145.927 34.917 145.922 40.833 C 145.917 46.591,145.927 46.784,146.309 48.000 C 147.830 52.840,150.721 55.782,155.426 57.277 L 156.917 57.750 163.750 57.750 L 170.583 57.750 172.000 57.278 C 177.486 55.451,180.674 51.591,181.395 45.903 C 182.736 35.325,180.273 28.265,174.250 25.421 C 171.374 24.064,171.747 24.114,164.250 24.076 C 160.583 24.057,157.321 24.073,157.000 24.112 M114.559 24.501 C 111.576 24.937,109.360 26.787,108.173 29.831 L 107.750 30.917 107.750 40.917 C 107.750 50.281,107.770 50.975,108.064 51.833 C 108.997 54.552,110.960 56.313,113.910 57.076 C 114.758 57.296,116.568 57.333,126.285 57.333 L 137.667 57.333 137.667 54.339 L 137.667 51.345 126.625 51.297 C 114.345 51.245,114.878 51.295,114.160 50.117 C 113.650 49.280,113.654 32.490,114.164 31.625 C 114.850 30.463,114.434 30.500,126.672 30.500 L 137.667 30.500 137.667 27.417 L 137.667 24.333 126.542 24.354 C 120.423 24.366,115.031 24.431,114.559 24.501 M193.833 24.435 C 192.784 24.803,192.290 25.128,191.882 25.716 L 191.417 26.388 191.417 40.902 L 191.417 55.417 191.833 56.043 C 192.715 57.369,192.410 57.333,202.976 57.333 C 210.850 57.333,212.550 57.291,213.617 57.071 C 219.000 55.959,222.684 52.374,224.074 46.893 C 224.560 44.973,224.446 36.216,223.909 34.307 C 222.615 29.702,218.935 25.925,214.833 24.989 C 214.512 24.915,213.950 24.764,213.583 24.652 C 212.906 24.446,194.382 24.242,193.833 24.435 M236.109 24.576 C 234.010 25.325,234.083 24.814,234.083 38.667 C 234.083 52.904,234.032 52.556,236.508 55.000 C 238.844 57.305,239.032 57.333,252.118 57.333 L 263.000 57.333 263.000 54.339 L 263.000 51.345 252.542 51.296 C 241.095 51.243,241.291 51.260,240.671 50.257 C 240.342 49.725,240.333 49.462,240.333 40.105 L 240.333 30.500 251.667 30.500 L 263.000 30.500 263.000 27.417 L 263.000 24.333 249.875 24.341 C 239.195 24.347,236.631 24.391,236.109 24.576 M271.000 24.435 C 271.000 24.546,272.174 26.960,276.828 36.417 C 278.543 39.900,280.680 44.250,281.578 46.083 C 287.686 58.550,287.276 57.950,289.589 57.803 C 291.382 57.689,291.473 57.573,294.361 51.693 C 295.742 48.883,297.980 44.333,299.334 41.583 C 306.157 27.726,307.462 25.054,307.571 24.708 L 307.689 24.333 304.263 24.333 L 300.837 24.333 298.775 28.542 C 296.108 33.982,292.846 40.619,290.951 44.458 C 290.125 46.131,289.397 47.500,289.333 47.500 C 289.270 47.500,288.731 46.506,288.135 45.292 C 286.603 42.166,284.698 38.267,282.253 33.250 C 281.091 30.867,280.001 28.641,279.830 28.304 C 279.658 27.967,279.449 27.554,279.364 27.387 C 279.279 27.220,278.919 26.466,278.563 25.712 L 277.917 24.341 274.458 24.337 C 272.556 24.335,271.000 24.379,271.000 24.435 M316.000 40.833 L 316.000 57.333 319.083 57.333 L 322.167 57.333 322.167 40.833 L 322.167 24.333 319.083 24.333 L 316.000 24.333 316.000 40.833 M339.667 24.492 C 336.427 24.988,334.150 27.032,333.069 30.417 C 332.580 31.949,332.578 50.039,333.067 51.583 C 333.965 54.420,335.995 56.329,338.910 57.078 C 339.755 57.295,341.615 57.333,351.368 57.333 L 362.833 57.333 362.833 54.333 L 362.833 51.333 352.042 51.326 C 339.726 51.318,339.919 51.336,339.214 50.083 L 338.839 49.417 338.836 40.873 C 338.833 32.086,338.832 32.104,339.485 31.290 C 340.127 30.492,339.998 30.500,351.779 30.500 L 362.841 30.500 362.795 27.458 L 362.750 24.417 351.583 24.397 C 345.442 24.386,340.079 24.428,339.667 24.492 M373.287 24.535 C 372.543 24.732,371.753 25.471,371.411 26.289 C 371.032 27.197,371.048 49.745,371.429 51.216 C 372.204 54.205,374.225 56.227,377.239 57.027 C 378.304 57.309,379.237 57.333,389.197 57.333 L 400.000 57.333 400.000 54.333 L 400.000 51.333 389.875 51.326 C 378.689 51.318,378.518 51.303,377.764 50.280 C 377.423 49.818,377.416 49.637,377.371 40.155 L 377.325 30.500 388.663 30.500 L 400.000 30.500 400.000 27.417 L 400.000 24.333 386.958 24.351 C 378.826 24.361,373.680 24.431,373.287 24.535 M169.594 30.348 C 173.868 31.131,175.325 33.786,175.330 40.799 C 175.335 47.421,174.541 49.297,171.021 50.975 L 169.750 51.581 164.832 51.641 C 156.492 51.744,154.585 51.094,152.800 47.541 L 152.250 46.447 152.250 40.849 L 152.250 35.250 152.716 34.301 C 153.656 32.388,155.569 30.852,157.583 30.394 C 158.693 30.141,168.266 30.105,169.594 30.348 M213.167 30.970 C 214.920 31.596,216.543 32.894,217.196 34.194 C 218.122 36.036,218.083 35.744,218.083 40.917 L 218.083 45.750 217.469 47.005 C 215.637 50.753,213.827 51.333,203.978 51.333 L 197.667 51.333 197.667 40.910 L 197.667 30.487 204.875 30.535 C 211.931 30.582,212.106 30.592,213.167 30.970 M244.667 40.917 L 244.667 44.000 253.833 44.000 L 263.000 44.000 263.000 40.917 L 263.000 37.833 253.833 37.833 L 244.667 37.833 244.667 40.917 M381.833 40.917 L 381.833 44.000 390.917 44.000 L 400.000 44.000 400.000 40.917 L 400.000 37.833 390.917 37.833 L 381.833 37.833 381.833 40.917 " stroke="none" fill="#040404" fill-rule="evenodd">
		</path>
		<path id="path2" d="M6.893 1.500 C 6.893 2.371,6.922 2.727,6.956 2.292 C 6.990 1.856,6.990 1.144,6.956 0.708 C 6.922 0.273,6.893 0.629,6.893 1.500 M12.500 4.125 C 12.500 4.194,13.625 4.250,15.000 4.250 C 16.375 4.250,17.500 4.194,17.500 4.125 C 17.500 4.056,16.375 4.000,15.000 4.000 C 13.625 4.000,12.500 4.056,12.500 4.125 M3.000 9.625 C 2.999 9.694,3.543 9.729,4.208 9.704 C 6.284 9.626,6.485 9.554,4.708 9.527 C 3.769 9.512,3.000 9.556,3.000 9.625 M3.000 13.208 C 3.000 13.277,3.844 13.321,4.875 13.305 C 6.799 13.277,6.574 13.208,4.291 13.129 C 3.581 13.104,2.999 13.140,3.000 13.208 M74.333 13.397 C 74.333 13.432,74.521 13.497,74.750 13.541 C 74.979 13.585,75.167 13.556,75.167 13.477 C 75.167 13.398,74.979 13.333,74.750 13.333 C 74.521 13.333,74.333 13.362,74.333 13.397 M76.375 14.188 C 76.810 14.473,77.167 14.772,77.167 14.853 C 77.167 14.934,77.246 15.000,77.343 15.000 C 77.440 15.000,77.470 14.920,77.410 14.822 C 77.246 14.557,75.978 13.666,75.767 13.669 C 75.666 13.670,75.940 13.904,76.375 14.188 M10.277 14.637 C 9.877 15.079,9.936 15.231,10.347 14.819 C 10.538 14.628,10.663 14.441,10.624 14.402 C 10.585 14.363,10.429 14.469,10.277 14.637 M77.889 15.961 C 77.916 16.168,78.027 16.427,78.136 16.536 C 78.405 16.805,78.375 16.508,78.080 16.000 C 77.847 15.596,77.841 15.595,77.889 15.961 M78.181 36.625 C 78.187 47.559,78.254 55.937,78.334 55.750 C 78.541 55.265,78.542 17.167,78.335 17.167 C 78.226 17.167,78.173 23.869,78.181 36.625 M9.247 36.417 C 9.247 46.775,9.267 50.988,9.292 45.779 C 9.316 40.570,9.316 32.095,9.292 26.946 C 9.267 21.796,9.247 26.058,9.247 36.417 M15.744 20.041 C 15.700 20.156,15.683 27.600,15.707 36.583 L 15.750 52.917 43.792 52.959 L 71.835 53.001 71.792 36.459 L 71.750 19.917 43.787 19.875 C 21.504 19.841,15.807 19.875,15.744 20.041 M71.667 36.417 L 71.667 52.833 43.750 52.833 L 15.833 52.833 15.833 36.417 L 15.833 20.000 43.750 20.000 L 71.667 20.000 71.667 36.417 M18.732 25.083 C 18.733 26.367,18.759 26.870,18.791 26.201 C 18.822 25.532,18.822 24.482,18.790 23.868 C 18.758 23.253,18.732 23.800,18.732 25.083 M23.066 25.083 C 23.066 26.367,23.092 26.870,23.124 26.201 C 23.156 25.532,23.155 24.482,23.123 23.868 C 23.091 23.253,23.065 23.800,23.066 25.083 M2.167 23.667 L -0.083 23.765 2.115 23.799 C 3.439 23.820,4.355 23.767,4.417 23.667 C 4.473 23.575,4.496 23.515,4.468 23.534 C 4.440 23.553,3.404 23.613,2.167 23.667 M66.207 36.375 L 66.167 47.333 54.005 47.333 C 42.498 47.333,41.849 47.318,41.938 47.042 C 42.014 46.804,42.000 46.795,41.860 46.992 C 41.766 47.125,41.726 47.294,41.771 47.367 C 41.919 47.606,66.165 47.532,66.257 47.292 C 66.301 47.177,66.316 42.208,66.292 36.250 L 66.248 25.417 66.207 36.375 M34.208 28.789 L 35.667 28.846 35.667 29.913 L 35.667 30.981 34.958 31.045 L 34.250 31.108 35.049 31.138 L 35.848 31.167 35.799 29.958 L 35.750 28.750 34.250 28.741 L 32.750 28.731 34.208 28.789 M30.875 29.207 C 30.577 29.385,30.333 29.601,30.333 29.687 C 30.333 29.773,30.577 29.673,30.875 29.464 C 31.173 29.255,31.448 29.065,31.486 29.042 C 31.524 29.019,31.524 28.974,31.486 28.942 C 31.448 28.909,31.173 29.029,30.875 29.207 M47.917 29.167 C 47.854 29.364,47.840 29.563,47.886 29.608 C 47.932 29.654,48.021 29.530,48.083 29.333 C 48.146 29.136,48.160 28.937,48.114 28.892 C 48.068 28.846,47.979 28.970,47.917 29.167 M21.207 38.792 L 21.250 47.417 29.750 47.420 L 38.250 47.423 29.833 47.336 L 21.417 47.250 21.417 38.708 C 21.417 34.010,21.360 30.167,21.290 30.167 C 21.221 30.167,21.183 34.048,21.207 38.792 M52.833 31.008 C 53.411 31.401,53.741 31.515,53.333 31.182 C 53.104 30.994,52.842 30.840,52.750 30.840 C 52.658 30.839,52.696 30.915,52.833 31.008 M53.917 31.632 C 54.316 31.995,56.000 32.841,56.000 32.679 C 56.000 32.581,55.905 32.500,55.789 32.500 C 55.672 32.500,55.316 32.325,54.997 32.112 C 54.387 31.704,53.623 31.365,53.917 31.632 M57.239 33.482 C 57.301 33.583,57.507 33.748,57.696 33.849 C 57.943 33.981,58.008 33.982,57.927 33.851 C 57.865 33.751,57.660 33.586,57.471 33.484 C 57.224 33.352,57.158 33.352,57.239 33.482 M32.125 35.027 C 31.583 35.635,31.521 35.851,32.015 35.403 C 32.322 35.125,32.759 34.489,32.631 34.506 C 32.605 34.510,32.377 34.744,32.125 35.027 M59.000 34.579 C 59.000 34.623,59.222 34.773,59.494 34.914 C 59.984 35.167,59.988 35.183,60.042 36.793 L 60.097 38.417 60.132 36.803 C 60.167 35.196,60.165 35.188,59.683 34.845 C 59.205 34.504,59.000 34.425,59.000 34.579 M28.917 35.167 C 28.860 35.258,28.481 35.333,28.073 35.333 L 27.333 35.333 27.333 36.417 L 27.333 37.500 27.958 37.473 C 28.574 37.447,28.575 37.446,28.042 37.379 C 27.505 37.313,27.500 37.303,27.500 36.406 L 27.500 35.500 28.146 35.500 C 28.517 35.500,28.881 35.394,29.000 35.250 C 29.114 35.112,29.165 35.000,29.114 35.000 C 29.062 35.000,28.973 35.075,28.917 35.167 M30.903 36.457 L 30.917 37.417 31.496 37.500 C 31.885 37.556,32.138 37.711,32.268 37.973 C 32.375 38.187,32.506 38.293,32.559 38.207 C 32.730 37.929,32.009 37.333,31.502 37.333 C 31.032 37.333,31.015 37.303,30.953 36.416 L 30.889 35.498 30.903 36.457 M54.451 35.815 C 54.654 36.008,54.920 36.167,55.043 36.167 C 55.166 36.167,55.368 36.260,55.491 36.375 C 55.671 36.542,55.692 36.541,55.596 36.373 C 55.531 36.257,55.164 36.005,54.780 35.812 L 54.083 35.463 54.451 35.815 M45.667 35.709 C 45.667 35.733,45.596 35.997,45.511 36.296 C 45.414 36.634,45.414 36.803,45.511 36.743 C 45.596 36.690,45.667 36.516,45.667 36.357 C 45.667 36.197,45.757 35.977,45.867 35.867 C 46.022 35.711,46.022 35.667,45.867 35.667 C 45.757 35.667,45.667 35.686,45.667 35.709 M55.868 36.577 C 55.933 36.649,55.820 36.853,55.618 37.030 L 55.250 37.352 55.616 37.175 C 56.095 36.943,56.223 36.719,55.961 36.568 C 55.845 36.501,55.803 36.505,55.868 36.577 M56.792 40.095 C 56.187 40.423,56.208 40.518,56.833 40.282 C 57.108 40.179,57.333 40.035,57.333 39.963 C 57.333 39.799,57.340 39.798,56.792 40.095 M43.956 40.614 C 43.914 40.689,43.835 40.975,43.780 41.250 C 43.681 41.747,43.682 41.747,43.932 41.189 C 44.150 40.702,44.170 40.237,43.956 40.614 M55.083 41.107 C 53.901 41.810,53.775 41.918,54.333 41.748 C 54.563 41.679,54.788 41.572,54.833 41.510 C 54.879 41.449,55.198 41.228,55.542 41.019 C 55.885 40.810,56.167 40.608,56.167 40.570 C 56.167 40.464,56.155 40.470,55.083 41.107 M35.723 43.000 C 35.723 43.688,35.752 43.969,35.788 43.625 C 35.824 43.281,35.824 42.719,35.788 42.375 C 35.752 42.031,35.723 42.313,35.723 43.000 M43.413 42.179 C 43.255 42.676,43.386 42.715,43.611 42.238 C 43.716 42.015,43.739 41.833,43.662 41.833 C 43.585 41.833,43.473 41.989,43.413 42.179 M39.695 42.825 C 39.597 43.105,39.553 43.333,39.596 43.333 C 39.709 43.333,40.023 42.468,39.941 42.385 C 39.903 42.347,39.792 42.545,39.695 42.825 M39.017 44.767 C 38.921 45.114,38.872 45.428,38.909 45.465 C 38.946 45.501,39.054 45.247,39.150 44.900 C 39.246 44.553,39.294 44.239,39.258 44.202 C 39.221 44.165,39.113 44.419,39.017 44.767 M76.583 58.604 C 76.284 58.859,76.222 58.961,76.430 58.857 C 76.736 58.705,77.309 58.157,77.145 58.173 C 77.111 58.176,76.858 58.370,76.583 58.604 M11.574 59.074 C 11.751 59.217,12.014 59.327,12.157 59.320 C 12.381 59.309,12.383 59.294,12.167 59.214 C 12.029 59.163,11.767 59.053,11.583 58.968 C 11.255 58.817,11.255 58.819,11.574 59.074 M3.556 63.333 C 3.556 64.021,3.585 64.302,3.621 63.958 C 3.657 63.615,3.657 63.052,3.621 62.708 C 3.585 62.365,3.556 62.646,3.556 63.333 M43.815 62.292 L 83.880 62.334 83.795 63.875 C 83.748 64.723,83.770 65.267,83.843 65.083 C 83.917 64.900,83.982 64.169,83.988 63.458 L 84.000 62.167 43.875 62.208 L 3.750 62.249 43.815 62.292 M3.833 65.551 C 3.833 65.671,3.945 65.915,4.081 66.093 C 4.308 66.389,4.313 66.371,4.148 65.875 C 3.959 65.309,3.833 65.180,3.833 65.551 M82.793 66.852 C 82.542 67.208,82.369 67.500,82.410 67.500 C 82.529 67.500,83.386 66.330,83.315 66.264 C 83.279 66.231,83.044 66.495,82.793 66.852 M36.638 66.458 C 40.701 66.483,47.301 66.483,51.304 66.458 C 55.308 66.433,51.983 66.413,43.917 66.413 C 35.850 66.413,32.574 66.433,36.638 66.458 M4.833 67.250 C 5.049 67.479,5.253 67.667,5.287 67.667 C 5.425 67.667,4.738 66.843,4.596 66.839 C 4.511 66.836,4.618 67.021,4.833 67.250 " stroke="none" fill="#34cc6c" fill-rule="evenodd">
		</path>
		<path id="path3" d="" stroke="none" fill="#1c3440" fill-rule="evenodd">
		</path>
		<path id="path4" d="M4.708 3.123 C 5.144 3.157,5.856 3.157,6.292 3.123 C 6.727 3.088,6.371 3.060,5.500 3.060 C 4.629 3.060,4.273 3.088,4.708 3.123 " stroke="none" fill="#1c3804" fill-rule="evenodd">
		</path>
	</g>
</svg>
